<?xml version="1.0" encoding="UTF-8"?>
<svg version="1.1" xmlns="http://www.w3.org/2000/svg" width="1053" height="1053">
<path d="M0 0 C347.49 0 694.98 0 1053 0 C1053 347.49 1053 694.98 1053 1053 C705.51 1053 358.02 1053 0 1053 C0 705.51 0 358.02 0 0 Z " fill="#FEFEFE" transform="translate(0,0)"/>
<path d="M0 0 C1.22901031 -0.00570007 2.45802063 -0.01140015 3.72427368 -0.01727295 C6.32463737 -0.0266848 8.92501278 -0.03324168 11.52539062 -0.03710938 C15.40257251 -0.04669213 19.27919497 -0.07770133 23.15625 -0.109375 C57.98213791 -0.2575868 91.9350748 4.50460346 125.1015625 15.203125 C126.12540039 15.52764648 127.14923828 15.85216797 128.20410156 16.18652344 C168.45643497 29.05580861 206.16022702 48.61888935 239.1015625 75.203125 C239.96265625 75.8734375 240.82375 76.54375 241.7109375 77.234375 C247.20966332 81.53772565 252.39431215 86.11553088 257.52734375 90.84765625 C259.62267416 92.76493127 261.74702125 94.61876385 263.9140625 96.453125 C272.92424998 104.29049882 281.51019665 112.98616522 289.1015625 122.203125 C289.54258301 122.73035156 289.98360352 123.25757813 290.43798828 123.80078125 C306.75514465 143.32864787 320.82116839 163.97530039 333.04443359 186.28125 C334.04798684 188.10572371 335.06745518 189.92041059 336.08984375 191.734375 C351.26402662 218.97953487 361.93460366 249.66305472 368.1015625 280.203125 C368.42181396 281.74323242 368.42181396 281.74323242 368.74853516 283.31445312 C369.44300124 286.67046174 370.12000223 290.02946334 370.7890625 293.390625 C371.09336182 294.90354126 371.09336182 294.90354126 371.40380859 296.44702148 C374.81180837 314.22584738 375.44764509 331.63970814 375.41723633 349.71264648 C375.41409343 353.60234085 375.43755522 357.49125932 375.46289062 361.38085938 C375.51918409 383.32184383 373.77224569 404.97763166 369.4765625 426.515625 C369.09806152 428.42927856 369.09806152 428.42927856 368.71191406 430.3815918 C362.1035619 462.82551822 350.12091065 493.7790444 335.1015625 523.203125 C334.68970703 524.01152832 334.27785156 524.81993164 333.85351562 525.65283203 C321.77157701 549.04776724 306.24004014 571.59678962 288.26171875 590.8671875 C286.46539046 592.80969078 284.74152876 594.7854996 283.01953125 596.79296875 C278.80151998 601.62639939 274.31371164 606.17705574 269.77832031 610.71166992 C268.36236303 612.12980784 266.95457961 613.55609165 265.546875 614.98242188 C259.37717434 621.16501188 252.9420798 626.77865118 246.1015625 632.203125 C244.8700292 633.21587895 243.64053565 634.23112393 242.4140625 635.25 C169.33098724 695.2000282 74.51198628 720.54507709 -18.8984375 712.015625 C-58.35257366 707.96250791 -97.18869062 697.5648142 -132.8984375 680.203125 C-133.59146973 679.87103027 -134.28450195 679.53893555 -134.99853516 679.19677734 C-165.05210342 664.76216407 -193.08208103 646.52439927 -217.8984375 624.203125 C-218.70522949 623.48092773 -218.70522949 623.48092773 -219.52832031 622.74414062 C-230.87103597 612.55134635 -242.19189773 601.98819615 -251.8984375 590.203125 C-252.33945801 589.67589844 -252.78047852 589.14867187 -253.23486328 588.60546875 C-290.32618445 544.21572607 -316.37902578 492.8489942 -329.4609375 436.453125 C-329.68830093 435.47416763 -329.68830093 435.47416763 -329.92025757 434.47543335 C-332.32239144 424.09487949 -334.44350831 413.76034897 -335.8984375 403.203125 C-335.99000122 402.54152878 -336.08156494 401.87993256 -336.17590332 401.19828796 C-337.99175869 387.54936635 -338.23908783 373.97286371 -338.21411133 360.21728516 C-338.21096023 356.60418219 -338.23447412 352.9919083 -338.25976562 349.37890625 C-338.30233403 333.77908128 -337.1892748 318.63124295 -334.8984375 303.203125 C-334.79610809 302.49750427 -334.69377869 301.79188354 -334.58834839 301.06488037 C-334.04138274 297.34464335 -333.40947125 293.64770885 -332.7109375 289.953125 C-332.4022876 288.31041626 -332.4022876 288.31041626 -332.08740234 286.63452148 C-319.50975828 222.54475984 -288.94617087 163.77392047 -245.08203125 115.609375 C-243.58103271 113.95532294 -242.09477841 112.2878083 -240.62109375 110.609375 C-236.59156968 106.03569298 -232.51269234 101.83334365 -227.8515625 97.90625 C-225.82050795 96.13517043 -223.96036982 94.26351446 -222.0859375 92.328125 C-217.85878788 88.06025139 -213.32328498 84.28714321 -208.61376953 80.56347656 C-207.39454387 79.59656433 -206.17983106 78.62394966 -204.96826172 77.64746094 C-148.19174688 31.90005482 -73.64054736 0.27188136 0 0 Z " fill="#395F76" transform="translate(508.8984375,143.796875)"/>
<path d="M0 0 C0.65258789 0.31936523 1.30517578 0.63873047 1.97753906 0.96777344 C26.11177279 12.95578162 49.05595959 30.37783341 66.4375 51 C68.65389933 53.98929966 68.65389933 53.98929966 71 55 C71 50.38 71 45.76 71 41 C69.68 40.34 68.36 39.68 67 39 C80.86 39 94.72 39 109 39 C107.515 41.475 107.515 41.475 106 44 C105.0284359 50.90480553 107.67773066 57.19135897 109.796875 63.6953125 C110.38193817 65.53196976 110.38193817 65.53196976 110.9788208 67.4057312 C112.01401725 70.65535542 113.06111548 73.90101886 114.11096191 77.14593506 C115.16415063 80.40760115 116.20684988 83.67261228 117.25 86.9375 C118.43061246 90.63152464 119.61295141 94.32496105 120.8024292 98.0161438 C122.90613241 104.54571989 124.95984885 111.08795363 126.96859741 117.64733887 C128.6540192 123.12594458 130.37870197 128.5921954 132.10139275 134.05916786 C132.76918989 136.17877662 133.43626329 138.29861205 134.10316467 140.41850281 C136.29201782 147.37568146 138.48288871 154.33221907 140.67686272 161.28778458 C145.23045546 175.72718101 149.78266915 190.16446315 154.12890625 204.66796875 C154.71747725 206.62021426 155.30609788 208.57244481 155.89477539 210.5246582 C156.93667084 213.98304805 157.95761871 217.44666717 158.96655273 220.91479492 C161.84908948 230.61881245 164.70486543 237.77864908 173 244 C159.47 244 145.94 244 132 244 C132.99 242.35 133.98 240.7 135 239 C135.61737165 233.25844362 134.20166789 228.6618672 132.375 223.3125 C131.82663008 221.6463246 131.2798097 219.97963858 130.734375 218.3125 C130.45013672 217.45011719 130.16589844 216.58773437 129.87304688 215.69921875 C128.38307009 211.09262384 127.00523107 206.45293203 125.625 201.8125 C125.36251465 200.93311768 125.1000293 200.05373535 124.82958984 199.14770508 C124.21843901 197.09885367 123.60901517 195.04948724 123 193 C122.98018066 193.56170898 122.96036133 194.12341797 122.93994141 194.70214844 C120.84785981 251.68536531 104.33088642 306.04123987 64 348 C63.33291016 348.69432129 62.66582031 349.38864258 61.97851562 350.10400391 C52.22390619 360.19144229 42.45729484 369.86279234 31 378 C30.43990234 378.40444336 29.87980469 378.80888672 29.30273438 379.22558594 C3.87944128 397.4364952 -23.87760634 408.29262697 -54 416 C-54.80018555 416.21060059 -55.60037109 416.42120117 -56.42480469 416.63818359 C-93.31948976 425.95198846 -136.18969779 417.98290474 -169 400 C-170.21349101 399.35537337 -171.42703213 398.71084108 -172.640625 398.06640625 C-181.10716161 393.48214848 -188.54590721 388.07627511 -196 382 C-196.52489014 381.57734863 -197.04978027 381.15469727 -197.59057617 380.71923828 C-200.43189205 378.4034405 -202.97767704 376.07350684 -205.3125 373.25 C-207.81974346 370.29287915 -210.43501512 367.60195093 -213.25 364.9375 C-239.9852865 338.3840862 -255.02150138 296.64395826 -255.26806641 259.48242188 C-255.24232508 253.9863011 -255.15700375 248.49392367 -255 243 C-256.32970825 243.24012817 -256.32970825 243.24012817 -257.6862793 243.48510742 C-282.07621946 247.27486531 -306.16535182 241.19743976 -326.25390625 227.10546875 C-330.75312418 223.655855 -334.90162808 219.91175604 -339 216 C-339.60199219 215.47277344 -340.20398438 214.94554687 -340.82421875 214.40234375 C-354.54250704 201.89919521 -362.82812257 182.67282751 -367 165 C-367.22558594 164.10925781 -367.45117188 163.21851563 -367.68359375 162.30078125 C-373.61756272 134.26789337 -366.56937028 106.06992923 -352 82 C-349.56173555 78.42421887 -346.91324633 75.19796151 -344 72 C-343.12730469 71.03449219 -342.25460937 70.06898438 -341.35546875 69.07421875 C-325.93536959 52.57450199 -303.88908841 40.16135926 -281.00634766 38.82519531 C-263.40895228 38.28373699 -263.40895228 38.28373699 -256.5234375 39.73046875 C-253.95726715 40.28094669 -253.95726715 40.28094669 -252.05078125 38.6640625 C-251.47714844 37.99117188 -250.90351563 37.31828125 -250.3125 36.625 C-188.82171597 -30.3290484 -78.01926316 -38.20045929 0 0 Z " fill="#F9FBFC" transform="translate(630,327)"/>
<path d="M0 0 C0.09356835 15.76861442 0.16404024 31.53715351 0.20724869 47.30597687 C0.22784714 54.6282328 0.25591537 61.95031594 0.30175781 69.27246094 C0.34170926 75.65673235 0.36745256 82.04087856 0.37635398 88.42527151 C0.38155479 91.80375771 0.39372085 95.18188586 0.42292023 98.56025696 C0.451994 102.33791253 0.45595414 106.11482851 0.45410156 109.89257812 C0.46848267 111.00460602 0.48286377 112.11663391 0.49768066 113.26235962 C0.46289256 119.82641631 -0.06412465 126.06412465 -5 131 C7.21 131 19.42 131 32 131 C30.68 129.35 29.36 127.7 28 126 C26.87340481 122.62021442 26.87979017 120.07183864 26.88647461 116.5090332 C26.88632858 115.8551059 26.88618256 115.20117859 26.8860321 114.5274353 C26.88672812 112.36851674 26.89450592 110.20968472 26.90234375 108.05078125 C26.90420904 106.55291287 26.90563242 105.05504389 26.90663147 103.55717468 C26.91044793 99.61654981 26.9202708 95.67596186 26.93133545 91.73535156 C26.94156828 87.71354675 26.9461331 83.69173596 26.95117188 79.66992188 C26.96189384 71.77993099 26.97895983 63.88997009 27 56 C32.71069963 55.82632389 38.41984685 55.69963764 44.13256836 55.61547852 C46.07359611 55.58038119 48.01444018 55.53268909 49.95483398 55.47192383 C52.75290288 55.38652496 55.54851728 55.34720663 58.34765625 55.31640625 C59.2083522 55.28027725 60.06904816 55.24414825 60.95582581 55.20692444 C65.69248234 55.20387155 68.36672148 55.78959696 71.86474609 59.09472656 C74.84109976 62.51481875 76.94807819 66.05703871 78.81640625 70.16796875 C79.49101967 71.58123105 80.16566306 72.99447905 80.84033203 74.40771484 C81.18896301 75.15180603 81.53759399 75.89589722 81.89678955 76.66253662 C83.44207508 79.9366611 85.0439542 83.18203768 86.6434021 86.42996216 C88.32666669 89.8505559 89.9962968 93.27773165 91.66625977 96.70483398 C92.95851339 99.3556043 94.25365275 102.00495313 95.54882812 104.65429688 C96.37517507 106.34887297 97.20135352 108.04353125 98.02734375 109.73828125 C98.41268784 110.52568192 98.79803192 111.31308258 99.1950531 112.12434387 C99.54955032 112.85328354 99.90404755 113.58222321 100.26928711 114.33325195 C100.58046982 114.97116165 100.89165253 115.60907135 101.21226501 116.26631165 C103.24001318 120.72908586 103.15315098 124.1757442 103 129 C102.67 129.66 102.34 130.32 102 131 C114.54 131 127.08 131 140 131 C137.03 129.02 137.03 129.02 134 127 C129.38515871 122.14297031 126.37563932 116.2586072 123.5390625 110.25 C122.94766983 109.02543091 122.94766983 109.02543091 122.34432983 107.77612305 C121.0963898 105.18791263 119.86031408 102.59425653 118.625 100 C117.80551265 98.29257247 116.98520557 96.58553812 116.1640625 94.87890625 C115.76064636 94.04029053 115.35723022 93.2016748 114.94158936 92.33764648 C114.54063049 91.50434814 114.13967163 90.6710498 113.7265625 89.8125 C113.32802063 88.98371338 112.92947876 88.15492676 112.51885986 87.30102539 C111.34746541 84.86659494 110.17428249 82.43303857 109 80 C108.63064331 79.23397461 108.26128662 78.46794922 107.8807373 77.67871094 C106.8314948 75.51128815 105.77288316 73.34872199 104.7109375 71.1875 C104.40838043 70.56012939 104.10582336 69.93275879 103.7940979 69.28637695 C100.91264886 63.46703194 97.61577858 57.53586059 92 54 C93.051875 53.608125 94.10375 53.21625 95.1875 52.8125 C95.91710937 52.53535156 96.64671875 52.25820313 97.3984375 51.97265625 C99.271123 51.27250807 101.15254626 50.59557181 103.0390625 49.93359375 C110.72279517 47.15534673 117.29438084 43.66302575 124 39 C125.85307848 40.85307848 125.21716754 43.76567751 125.25 46.25 C125.22962735 51.27695132 124.75871108 55.69983784 123.5 60.5625 C120.5312169 72.33772143 121.3342537 82.16357261 127 93 C133.6567344 103.4771211 142.9043478 110.11576833 155 113 C159.97898484 113.66577278 164.98125619 113.86454133 170 114 C168.21935137 121.3260972 165.2209398 125.58204361 160 131 C165.28 131 170.56 131 176 131 C175.34 129.68 174.68 128.36 174 127 C173.52662603 121.31951235 173.73056331 115.87124124 177 111 C178.84871794 109.76752137 180.70340228 108.9669961 182.75 108.10546875 C191.1165057 103.99484182 197.82545933 95.86467029 201.03125 87.21875 C204.57067874 74.76520443 204.0464704 63.34979619 197.859375 51.88671875 C196.11341396 48.05354064 197.58514431 44.20833514 198.89453125 40.39453125 C201.58274648 33.41725352 201.58274648 33.41725352 204 31 C206.30833435 30.73257446 206.30833435 30.73257446 209.22827148 30.70947266 C210.3195787 30.69671295 211.41088593 30.68395325 212.53526306 30.67080688 C214.31024925 30.66746841 214.31024925 30.66746841 216.12109375 30.6640625 C217.93735008 30.6540773 217.93735008 30.6540773 219.79029846 30.64389038 C222.35505653 30.63374977 224.91984105 30.62907379 227.48461914 30.62939453 C231.41792065 30.62502177 235.35010037 30.5887156 239.28320312 30.55078125 C241.77082948 30.54491347 244.25846119 30.54094382 246.74609375 30.5390625 C248.51804359 30.51750595 248.51804359 30.51750595 250.32579041 30.49551392 C251.42024979 30.50166718 252.51470917 30.50782043 253.64233398 30.51416016 C254.60670883 30.51131012 255.57108368 30.50846008 256.56468201 30.50552368 C259 31 259 31 260.79161072 32.89715576 C262.0687089 35.11956752 262.64786083 36.90337696 263.1328125 39.4140625 C263.29910156 40.25839844 263.46539063 41.10273438 263.63671875 41.97265625 C263.79785156 42.84792969 263.95898438 43.72320312 264.125 44.625 C264.29386719 45.47707031 264.46273438 46.32914062 264.63671875 47.20703125 C266.85978587 58.77748295 267.18639059 70.10663964 267.18530273 81.85546875 C267.18747201 84.46631615 267.20563001 87.07672795 267.22460938 89.6875 C267.27902355 105.34425409 265.9929182 120.54620347 262.375 135.8125 C262.11557617 136.91360107 261.85615234 138.01470215 261.58886719 139.14916992 C258.9657576 149.8242396 255.37672964 159.92697213 251 170 C250.43539062 171.30445068 250.43539062 171.30445068 249.859375 172.63525391 C227.29531356 223.959092 185.33389071 263.6317122 133.75 285.125 C89.87238081 302.1472899 42.5416391 306.41254621 -1.375 287.1875 C-38.60650987 270.16470054 -69.83747825 238.6186845 -84.28515625 200.04052734 C-85.72091094 195.94215381 -86.97242267 191.79340603 -88.1875 187.625 C-88.5446106 186.40550659 -88.5446106 186.40550659 -88.90893555 185.16137695 C-92.82090363 171.13560707 -94.44426447 158.01122966 -94.1875 143.5 C-94.17239259 141.98308653 -94.15871513 140.46615814 -94.14648438 138.94921875 C-94.11403454 135.29915914 -94.06260451 131.64968223 -94 128 C-92.98244629 127.5987793 -91.96489258 127.19755859 -90.91650391 126.78417969 C-89.56147708 126.24686169 -88.2064992 125.70942023 -86.8515625 125.171875 C-86.18326416 124.90874512 -85.51496582 124.64561523 -84.82641602 124.37451172 C-59.99320306 114.50198057 -42.04408233 95.80572041 -31.34375 71.4921875 C-28.77005154 64.80356419 -26.74021957 57.94983929 -25 51 C-24.80220947 50.26539551 -24.60441895 49.53079102 -24.40063477 48.77392578 C-22.30683285 40.04091084 -23.11016169 31.24253397 -23.69335938 22.34765625 C-23.97497658 13.13543243 -23.97497658 13.13543243 -21.19165039 9.89404297 C-18.85995433 8.31009178 -16.57917022 7.12981699 -14 6 C-12.86691406 5.37351562 -11.73382813 4.74703125 -10.56640625 4.1015625 C-9.07947266 3.37066406 -9.07947266 3.37066406 -7.5625 2.625 C-6.55316406 2.12226563 -5.54382813 1.61953125 -4.50390625 1.1015625 C-2 0 -2 0 0 0 Z " fill="#395F76" transform="translate(477,439)"/>
<path d="M0 0 C2.36249554 0.01837088 4.7245982 0.02050791 7.0871582 0.02026367 C20.12851849 0.04769164 32.2665159 1.21710525 45.04223633 4.01831055 C46.21915039 4.26645508 47.39606445 4.51459961 48.60864258 4.77026367 C80.39850729 11.64233014 109.62291263 25.10949939 135.16723633 45.20581055 C135.99739258 45.83100586 136.82754883 46.45620117 137.68286133 47.1003418 C167.78532862 70.50824197 167.78532862 70.50824197 169.63989258 80.83862305 C168.94047423 85.82125624 167.27551682 90.34693249 165.60473633 95.08081055 C160.91615885 108.73284497 156.58327123 122.48682589 152.29223633 136.26831055 C151.96222626 137.32636902 151.63221619 138.38442749 151.29220581 139.47454834 C150.33546842 142.54220514 149.37987906 145.61021588 148.42504883 148.6784668 C147.99889534 150.04759468 147.99889534 150.04759468 147.56413269 151.44438171 C145.7294014 157.35431873 143.93490932 163.27547726 142.16723633 169.20581055 C138.40096038 167.4787851 136.68393282 165.59054057 134.16723633 162.26831055 C127.05199328 153.38005091 118.72905814 146.19771547 109.60473633 139.45581055 C108.97398193 138.98159668 108.34322754 138.50738281 107.69335938 138.01879883 C104.76778049 135.87243991 102.21945696 134.22726268 98.83911133 132.83862305 C95.22490311 131.31535728 93.50922672 130.39739054 91.16723633 127.20581055 C89.76388549 121.07140271 89.76722403 114.74328675 89.53051758 108.47924805 C88.89285867 93.38723606 81.87913327 79.67095158 70.91723633 69.33862305 C67.6677452 66.81842112 64.36539714 64.80253774 60.72973633 62.89331055 C59.86457397 62.42308472 59.86457397 62.42308472 58.98193359 61.94335938 C44.46895659 54.86750287 28.2679174 54.64011341 12.50317383 54.81518555 C10.48866342 54.82266923 8.47414561 54.82835206 6.45962524 54.83233643 C1.22191366 54.84742559 -4.01533631 54.88655794 -9.25286865 54.93115234 C-14.62318685 54.97247114 -19.99358148 54.99042469 -25.36401367 55.01049805 C-35.85379702 55.05307272 -46.34324159 55.12111463 -56.83276367 55.20581055 C-56.21401367 55.78331055 -55.59526367 56.36081055 -54.95776367 56.95581055 C-51.30193181 60.82669135 -50.58188812 63.5114383 -50.60571289 68.80053711 C-50.60586395 69.92139709 -50.60601501 71.04225708 -50.60617065 72.19708252 C-50.61649323 73.40136902 -50.6268158 74.60565552 -50.63745117 75.84643555 C-50.64028107 77.08375427 -50.64311096 78.321073 -50.64602661 79.59588623 C-50.65532167 82.87732596 -50.67327662 86.15856809 -50.69543457 89.43994141 C-50.71593319 92.79156677 -50.72486643 96.14320062 -50.73510742 99.49487305 C-50.75716337 106.06526278 -50.79063786 112.6355205 -50.83276367 119.20581055 C-54.22736632 120.83339047 -57.62365761 122.45741621 -61.02026367 124.08081055 C-61.9799707 124.54100586 -62.93967773 125.00120117 -63.9284668 125.4753418 C-64.85981445 125.92006836 -65.79116211 126.36479492 -66.75073242 126.82299805 C-67.6043335 127.23146973 -68.45793457 127.63994141 -69.33740234 128.06079102 C-71.80736167 129.19415461 -74.30127789 130.21859056 -76.83276367 131.20581055 C-77.02870117 130.38081055 -77.22463867 129.55581055 -77.42651367 128.70581055 C-81.13382737 114.38790936 -87.46114129 101.70572122 -96.83276367 90.20581055 C-97.50823242 89.36663086 -98.18370117 88.52745117 -98.87963867 87.6628418 C-110.82462297 73.60350809 -126.54517179 64.2564677 -143.83276367 58.20581055 C-142.19005207 56.51010824 -140.52400222 54.85264903 -138.83276367 53.20581055 C-138.00711914 52.3859668 -138.00711914 52.3859668 -137.16479492 51.54956055 C-108.57066186 24.6105769 -68.18364143 8.30717931 -29.83276367 2.20581055 C-28.855896 2.0344458 -27.87902832 1.86308105 -26.87255859 1.68652344 C-17.86117107 0.22067107 -9.11198308 -0.07312378 0 0 Z " fill="#3A5F76" transform="translate(527.832763671875,311.794189453125)"/>
<path d="M0 0 C0.68578125 -0.00386719 1.3715625 -0.00773437 2.078125 -0.01171875 C6.15626809 -0.00393603 9.99977115 0.33745494 14 1.125 C12.49650623 4.79286393 10.36271208 6.81410393 7.375 9.375 C6.55773437 10.08140625 5.74046875 10.7878125 4.8984375 11.515625 C4.27195312 12.04671875 3.64546875 12.5778125 3 13.125 C3.99 14.445 4.98 15.765 6 17.125 C9.14906415 15.70897787 11.49523672 13.98764918 14.0625 11.6875 C15.06990234 10.79224609 15.06990234 10.79224609 16.09765625 9.87890625 C17.7754479 8.33203058 19.40159243 6.75328434 21 5.125 C25.85488076 6.45899877 29.46633581 8.5976492 33.375 11.6875 C33.94371826 12.13440186 34.51243652 12.58130371 35.09838867 13.04174805 C56.40022095 30.15404844 65.8755267 57.0414198 69.73828125 83.265625 C69.86783203 84.68101562 69.86783203 84.68101562 70 86.125 C70.13277344 87.27613281 70.26554688 88.42726563 70.40234375 89.61328125 C69.86719498 94.28414282 67.62256563 96.12151286 64.25 99.0625 C36.76503827 124.89527794 24.36806726 159.84631378 18 196.125 C7.41228482 200.59418631 -6.86230289 201.17708847 -17.71484375 197.15625 C-26.81526658 193.04939252 -33.92001949 188.19348703 -41 181.125 C-41.7734375 180.36316406 -42.546875 179.60132813 -43.34375 178.81640625 C-49.58876717 172.30405101 -53.88239398 165.07062217 -58 157.125 C-58.47308594 156.22007812 -58.94617188 155.31515625 -59.43359375 154.3828125 C-62.06818084 148.98231933 -63.95824105 143.42813018 -65.6875 137.6875 C-65.89012451 137.02000732 -66.09274902 136.35251465 -66.30151367 135.66479492 C-69.54761702 124.37182211 -70.37719459 113.27844841 -70.3125 101.5625 C-70.31034485 100.8594574 -70.3081897 100.15641479 -70.30596924 99.43206787 C-70.16305295 70.31431977 -63.21984564 42.0571569 -43 20.125 C-42.37738281 19.41085937 -41.75476563 18.69671875 -41.11328125 17.9609375 C-30.22807573 6.14010635 -15.95096761 -0.08994907 0 0 Z " fill="#395F76" transform="translate(358,368.875)"/>
<path d="M0 0 C0 0.33 0 0.66 0 1 C-2.31 1 -4.62 1 -7 1 C-7 1.66 -7 2.32 -7 3 C-8.84851563 3.12955078 -8.84851563 3.12955078 -10.734375 3.26171875 C-29.8132709 4.79498225 -44.21623409 11.27681661 -57 26 C-75.29295927 48.78525679 -81.18387792 75.67848969 -81.375 104.25 C-81.3830365 104.91928528 -81.391073 105.58857056 -81.39935303 106.27813721 C-81.49051659 116.28556358 -80.29168828 125.30836709 -78 135 C-77.81727539 135.81307617 -77.63455078 136.62615234 -77.44628906 137.46386719 C-73.70531602 153.40663467 -66.18177981 168.9546768 -55 181 C-54.33871094 181.763125 -53.67742187 182.52625 -52.99609375 183.3125 C-44.00823523 193.11141757 -31.17695948 200.64556955 -17.734375 201.23828125 C-9.65567876 201.43371999 -1.831459 201.20382766 6 199 C6 201.64 6 204.28 6 207 C5.67 206.01 5.34 205.02 5 204 C4.23300781 204.15855469 3.46601563 204.31710937 2.67578125 204.48046875 C-22.03446075 207.97298967 -45.85133068 202.41772325 -66.25390625 188.10546875 C-70.75312418 184.655855 -74.90162808 180.91175604 -79 177 C-79.60199219 176.47277344 -80.20398438 175.94554687 -80.82421875 175.40234375 C-94.54250704 162.89919521 -102.82812257 143.67282751 -107 126 C-107.22558594 125.10925781 -107.45117188 124.21851563 -107.68359375 123.30078125 C-113.61756272 95.26789337 -106.56937028 67.06992923 -92 43 C-89.56173555 39.42421887 -86.91324633 36.19796151 -84 33 C-83.12730469 32.03449219 -82.25460937 31.06898438 -81.35546875 30.07421875 C-59.13438373 6.29735421 -31.65490989 -1.03930756 0 0 Z " fill="#F9FCFC" transform="translate(370,366)"/>
<path d="M0 0 C1.02738281 0.65871094 2.05476562 1.31742187 3.11328125 1.99609375 C8.92378842 5.90383673 15.64936442 10.72272902 19 17 C18.69405111 26.36422134 13.28748176 35.99287045 7.0625 42.875 C3.15939075 46.43899754 -1.0830395 48.95988277 -5.75 51.375 C-6.67800415 51.85815674 -6.67800415 51.85815674 -7.62475586 52.35107422 C-20.25334388 58.41112827 -33.14267121 58.38763267 -46.8125 58.1875 C-52.814375 58.125625 -58.81625 58.06375 -65 58 C-65 37.54 -65 17.08 -65 -4 C-45.56437529 -11.77424988 -17.40471695 -12.35925698 0 0 Z " fill="#3A5F75" transform="translate(569,434)"/>
<path d="M0 0 C0.71721725 -0.00004028 1.43443451 -0.00008057 2.17338562 -0.00012207 C3.6974662 0.00524219 5.22154522 0.02286422 6.74536133 0.05175781 C9.0284142 0.09292409 11.30844261 0.09288156 13.59179688 0.0859375 C32.07623795 0.16423473 48.89466104 3.94982492 62.640625 17.19921875 C69.44172423 24.8770711 73.50810735 34.1425801 75.44921875 44.15625 C75.70058594 45.41566406 75.95195313 46.67507813 76.2109375 47.97265625 C76.71015833 51.25476763 76.86886581 54.28239552 76.76171875 57.59375 C72.37349262 57.0395079 68.16569236 56.26349201 63.86767578 55.18457031 C50.75438548 51.8948462 38.15004189 50.41412437 24.63671875 50.28125 C23.05721436 50.25466309 23.05721436 50.25466309 21.44580078 50.22753906 C10.74566097 50.2371716 0.30915106 51.92331103 -10.23828125 53.59375 C-10.31440136 46.84943885 -10.36691057 40.10523866 -10.40307617 33.3605957 C-10.41815433 31.06660828 -10.43861995 28.77264963 -10.46459961 26.47875977 C-10.50102483 23.17977795 -10.51801756 19.8811776 -10.53125 16.58203125 C-10.54673386 15.55789627 -10.56221771 14.53376129 -10.57817078 13.47859192 C-10.57911198 9.48843796 -10.45730533 6.24093956 -9.17236328 2.4440918 C-6.2498014 -0.35193149 -3.98630435 -0.02141735 0 0 Z " fill="#3A5F76" transform="translate(514.23828125,368.40625)"/>
<path d="M0 0 C5.08261765 4.79343423 8.4097845 10.16682343 11.90429688 16.13476562 C12.63270245 17.37474302 13.36836408 18.61048739 14.11132812 19.84179688 C22.1440492 33.15515893 34 53.08793557 34 69 C15.85 69 -2.3 69 -21 69 C-19.87501221 60.00009769 -19.87501221 60.00009769 -18.89599609 56.95263672 C-18.67818985 56.26276169 -18.46038361 55.57288666 -18.23597717 54.86210632 C-18.00083908 54.14190811 -17.76570099 53.4217099 -17.5234375 52.6796875 C-17.15399269 51.51920647 -17.15399269 51.51920647 -16.77708435 50.33528137 C-15.98303526 47.84633664 -15.17923732 45.36066925 -14.375 42.875 C-13.82709586 41.16531973 -13.27981636 39.45543915 -12.7331543 37.74536133 C-11.6549726 34.3752383 -10.57326472 31.00627995 -9.48876953 27.63818359 C-8.2045783 23.64513394 -6.93905565 19.64670574 -5.68359375 15.64453125 C-5.3602002 14.61537598 -5.03680664 13.5862207 -4.70361328 12.52587891 C-4.12359131 10.67838976 -3.5450623 8.83043101 -2.96826172 6.98193359 C-1.11259314 1.11259314 -1.11259314 1.11259314 0 0 Z " fill="#3B6076" transform="translate(702,398)"/>
<path d="M0 0 C-0.42081323 29.53343733 -10.21944295 58.71491866 -31.54980469 79.63427734 C-40.43296389 88 -40.43296389 88 -44 88 C-42.22793813 71.31087998 -23.38016491 0 0 0 Z " fill="#3D6176" transform="translate(428,473)"/>
<path d="M0 0 C30.36 0 60.72 0 92 0 C92 0.33 92 0.66 92 1 C82.1 1.495 82.1 1.495 72 2 C72.99 2.66 73.98 3.32 75 4 C56.685 3.505 56.685 3.505 38 3 C38 2.67 38 2.34 38 2 C25.79 2 13.58 2 1 2 C0.67 1.34 0.34 0.68 0 0 Z " fill="#C7D7E0" transform="translate(470,366)"/>
<path d="M0 0 C3.44836408 3.44836408 4.24252408 8.35932979 5.6875 12.9375 C6.02072266 13.95263672 6.35394531 14.96777344 6.69726562 16.01367188 C7.16229492 17.47450195 7.16229492 17.47450195 7.63671875 18.96484375 C7.92248779 19.8580835 8.20825684 20.75132324 8.50268555 21.67163086 C9 24 9 24 8 27 C7.31164062 25.89591797 7.31164062 25.89591797 6.609375 24.76953125 C5.99578125 23.79371094 5.3821875 22.81789063 4.75 21.8125 C4.14671875 20.84957031 3.5434375 19.88664062 2.921875 18.89453125 C1.05545019 15.96042643 1.05545019 15.96042643 -1.2421875 13.359375 C-3 11 -3 11 -2.875 7.4375 C-2.16342769 4.64203737 -1.47275566 2.45459277 0 0 Z " fill="#4B687B" transform="translate(708,378)"/>
<path d="M0 0 C0 2.64 0 5.28 0 8 C-0.33 7.01 -0.66 6.02 -1 5 C-1.74507813 5.16371094 -2.49015625 5.32742188 -3.2578125 5.49609375 C-8.47262574 6.1982972 -13.62020731 6.10456423 -18.875 6.0625 C-20.47988281 6.05573242 -20.47988281 6.05573242 -22.1171875 6.04882812 C-24.74484986 6.03709749 -27.37239538 6.02068228 -30 6 C-30 5.67 -30 5.34 -30 5 C-27.69 5 -25.38 5 -23 5 C-23 4.34 -23 3.68 -23 3 C-21.73542969 2.86722656 -20.47085937 2.73445312 -19.16796875 2.59765625 C-17.50779375 2.41944537 -15.84763852 2.24105037 -14.1875 2.0625 C-13.35412109 1.97548828 -12.52074219 1.88847656 -11.66210938 1.79882812 C-10.85966797 1.71181641 -10.05722656 1.62480469 -9.23046875 1.53515625 C-8.12288208 1.41732788 -8.12288208 1.41732788 -6.99291992 1.29711914 C-4.54906177 0.93277082 -2.48639245 0 0 0 Z " fill="#D5E3E8" transform="translate(376,565)"/>
<path d="M0 0 C7.92 0 15.84 0 24 0 C24 0.33 24 0.66 24 1 C21.69 1 19.38 1 17 1 C17 1.66 17 2.32 17 3 C13.04 3 9.08 3 5 3 C5 2.67 5 2.34 5 2 C3.35 1.67 1.7 1.34 0 1 C0 0.67 0 0.34 0 0 Z " fill="#D8E5EA" transform="translate(346,366)"/>
<path d="M0 0 C1.85486952 2.78230428 2.72462112 4.84363607 3.6875 8 C3.95949219 8.86625 4.23148438 9.7325 4.51171875 10.625 C5 13 5 13 4 16 C2.9944239 14.54550599 1.99569565 13.08627557 1 11.625 C0.443125 10.81289063 -0.11375 10.00078125 -0.6875 9.1640625 C-2 7 -2 7 -2 5 C-1.34 5 -0.68 5 0 5 C0 3.35 0 1.7 0 0 Z " fill="#617784" transform="translate(712,389)"/>
<path d="M0 0 C0.33 0.66 0.66 1.32 1 2 C-0.25883844 4.42442959 -1.55193227 6.69364046 -3 9 C-3.680625 10.093125 -4.36125 11.18625 -5.0625 12.3125 C-7 15 -7 15 -10 17 C-8.51364884 12.78345644 -6.38750841 9.37521395 -3.875 5.6875 C-3.15054688 4.61886719 -2.42609375 3.55023438 -1.6796875 2.44921875 C-0.84824219 1.23685547 -0.84824219 1.23685547 0 0 Z " fill="#4E6A7A" transform="translate(235,295)"/>
<path d="M0 0 C0.99 0.33 1.98 0.66 3 1 C1.78070272 2.30098717 0.54907548 3.59042437 -0.6875 4.875 C-1.37199219 5.59429688 -2.05648437 6.31359375 -2.76171875 7.0546875 C-5.09591291 9.08335887 -7.08467634 10.02992733 -10 11 C-6.79239749 7.19364503 -3.59253891 3.45436433 0 0 Z " fill="#516C7E" transform="translate(694,674)"/>
<path d="M0 0 C-1.50566464 3.8326009 -3.80257213 5.50444654 -7 8 C-8.76323505 10.12603185 -8.76323505 10.12603185 -10 12 C-10.99 11.67 -11.98 11.34 -13 11 C-11.21427748 9.16052663 -9.42197551 7.32842259 -7.625 5.5 C-7.11710937 4.97535156 -6.60921875 4.45070313 -6.0859375 3.91015625 C-2.2265625 0 -2.2265625 0 0 0 Z " fill="#4B6777" transform="translate(325,381)"/>
<path d="M0 0 C-1.78881736 1.00508801 -3.58114696 2.00392736 -5.375 3 C-6.37273437 3.556875 -7.37046875 4.11375 -8.3984375 4.6875 C-11 6 -11 6 -13 6 C-13.33 4.02 -13.66 2.04 -14 0 C-13.34 0 -12.68 0 -12 0 C-12 0.66 -12 1.32 -12 2 C-11.07767578 1.65775391 -11.07767578 1.65775391 -10.13671875 1.30859375 C-9.32847656 1.02113281 -8.52023437 0.73367188 -7.6875 0.4375 C-6.48673828 0.00244141 -6.48673828 0.00244141 -5.26171875 -0.44140625 C-3 -1 -3 -1 0 0 Z " fill="#526C7A" transform="translate(464,437)"/>
<path d="M0 0 C0.33 0 0.66 0 1 0 C1.02712066 1.43739513 1.04645067 2.87493863 1.0625 4.3125 C1.07410156 5.11300781 1.08570313 5.91351563 1.09765625 6.73828125 C1 9 1 9 0 12 C-3.16115776 10.63016497 -3.9927092 10.0109362 -6 7 C-4.02 6.67 -2.04 6.34 0 6 C0 4.02 0 2.04 0 0 Z " fill="#536D7C" transform="translate(701,370)"/>
<path d="M0 0 C7.26 0.33 14.52 0.66 22 1 C22 1.33 22 1.66 22 2 C11.605 2.495 11.605 2.495 1 3 C0.67 2.01 0.34 1.02 0 0 Z " fill="#476373" transform="translate(632,570)"/>
<path d="M0 0 C0 3 0 3 -1.1875 4.5 C-4.37490315 7.13785088 -6.78793927 9 -11 9 C-7.67149253 5.40521193 -4.01028669 2.77635232 0 0 Z " fill="#4F6A7B" transform="translate(417,549)"/>
<path d="M0 0 C0.66 0.33 1.32 0.66 2 1 C-0.97 3.97 -3.94 6.94 -7 10 C-7.66 9.34 -8.32 8.68 -9 8 C-6.03 5.36 -3.06 2.72 0 0 Z " fill="#EAF4F7" transform="translate(391,353)"/>
<path d="M0 0 C0 3.54016293 -0.73358567 4.41055605 -2.8125 7.1875 C-3.33457031 7.90292969 -3.85664063 8.61835938 -4.39453125 9.35546875 C-4.92433594 9.89816406 -5.45414063 10.44085938 -6 11 C-6.99 11 -7.98 11 -9 11 C-6.03 7.37 -3.06 3.74 0 0 Z " fill="#526D7D" transform="translate(248,278)"/>
<path d="M0 0 C0.33 0 0.66 0 1 0 C1.56638908 4.81430721 -0.17438373 7.20307814 -3 11 C-3.66 10.67 -4.32 10.34 -5 10 C-3.35 6.7 -1.7 3.4 0 0 Z " fill="#516D7D" transform="translate(445,512)"/>
<path d="M0 0 C0.33 0.99 0.66 1.98 1 3 C3.31 3 5.62 3 8 3 C8 3.33 8 3.66 8 4 C3.71 4 -0.58 4 -5 4 C-3.35 2.68 -1.7 1.36 0 0 Z " fill="#E4F5F8" transform="translate(639,567)"/>
<path d="M0 0 C0 0.99 0 1.98 0 3 C-3.96 4.98 -3.96 4.98 -8 7 C-6.5361389 2.60841671 -4.02168662 2.12052567 0 0 Z " fill="#4B6777" transform="translate(345,193)"/>
<path d="M0 0 C0.66 0.66 1.32 1.32 2 2 C-1.465 4.97 -1.465 4.97 -5 8 C-3.47524303 4.95048605 -2.07114674 2.63600494 0 0 Z " fill="#4E6979" transform="translate(417,484)"/>
</svg>
